<svg xmlns="http://www.w3.org/2000/svg" viewBox="0 0 194 368"><g fill="#A00B4C" fill-rule="evenodd"><path d="M70.81 266.08C70.37 265.91 70.43 265.39 70.94 264.95C71.18 264.75 72.44 264.2 73.75 263.75C75.06 263.29 76.52 262.71 77 262.46C77.48 262.21 77.97 262 78.09 262C78.54 262 91.12 256.49 93.68 255.17C94.26 254.87 96.68 253.64 99.06 252.43C103.91 249.97 103.96 249.94 108.98 246.97C117.84 241.74 117.81 241.76 125.48 236.01C138.67 226.13 140.94 224.08 145.58 217.83C146.55 216.52 148.99 211.49 149.16 210.43C149.33 209.39 148.89 208.46 147.55 207.08C146.03 205.51 144.19 204.78 140.02 204.09C138.01 203.76 136.06 203.36 135.68 203.21C134.93 202.91 134.25 201.86 134.25 201.02C134.25 200.28 135.24 196.71 135.61 196.12C135.78 195.85 136.22 194.89 136.57 194C137.66 191.28 140.2 186.04 141.71 183.38C143.08 180.95 143.48 180.27 144.1 179.3C144.44 178.75 144.89 177.93 145.1 177.47C145.32 177 146.11 175.61 146.86 174.38C147.61 173.14 148.68 171.34 149.24 170.38C149.8 169.41 151.2 167.05 152.36 165.12C153.52 163.2 154.85 160.95 155.32 160.12C155.78 159.3 156.62 157.84 157.17 156.88C160.23 151.57 163.88 144.22 165 141.12C165.25 140.44 165.64 139.37 165.87 138.75C166.1 138.13 166.68 136.28 167.15 134.64C167.89 132.02 168 131.29 168 128.81C168 125.64 167.65 124.58 166.16 123.2C164.5 121.65 163.7 121.41 159.6 121.24C156.07 121.08 155.74 121.03 154.49 120.35C153.33 119.72 153.02 119.38 152.18 117.81C151.4 116.35 151.11 115.43 150.72 113.06C150.28 110.39 150.23 108.64 150.17 93.75C150.13 84.01 149.97 75.45 149.78 72.62C149.28 65.1 148.09 54.45 147.5 52.27C147.37 51.78 147.08 50.36 146.85 49.12C146.34 46.29 144.78 40.75 144.36 40.25C144.19 40.04 143.77 39.19 143.43 38.35C142.63 36.36 141.44 34.67 139.74 33.07C137.68 31.15 136.49 30.84 134.46 31.72C131.04 33.19 127.96 36.82 125.3 42.49C124.69 43.8 124.09 45.16 123.98 45.5C123.87 45.84 123.43 47.02 123 48.12C122.57 49.23 121.83 51.19 121.36 52.5C119.28 58.33 118.43 60.71 116.67 65.75C114.34 72.45 113.21 75.5 112 78.38C111.48 79.61 110.75 81.35 110.39 82.23C110.02 83.11 109.39 84.34 108.98 84.94C108.57 85.55 107.94 86.63 107.58 87.34C106.63 89.21 104.88 91.8 103.6 93.22C102.73 94.19 102.1 94.61 100.7 95.14C99.14 95.74 98.55 95.83 95.9 95.85C93.13 95.87 92.72 95.81 91.04 95.16C90.03 94.76 88.39 93.89 87.38 93.21C85.41 91.87 81.3 87.87 79.23 85.25C77.55 83.13 75.88 81.35 75.11 80.84C74.64 80.53 74.19 80.48 73.1 80.62C71.93 80.76 71.51 80.96 70.6 81.8C69.14 83.14 68.71 83.9 67.65 86.96C66.08 91.47 65.36 98.01 65 111C64.51 128.58 64.28 132.25 63.27 138.53C62.87 140.98 61.62 145.13 61.02 145.97C60.74 146.37 60.5 146.84 60.5 147.02C60.5 147.47 59.03 149.74 58.14 150.66C57.72 151.1 56.78 151.76 56.05 152.13C54.85 152.75 54.54 152.8 52.72 152.7C50.95 152.59 50.45 152.45 48.42 151.42C46.46 150.42 43.27 148.54 39.12 145.92C37.31 144.78 36.01 144.4 33.88 144.4C30.71 144.4 28.61 145.45 27.55 147.57C26.51 149.65 26.61 156.81 27.76 162.75C28.3 165.55 28.55 166.91 28.78 168.19C28.9 168.91 29.86 172.46 30.91 176.06C32.95 183.12 34.69 189.93 34.91 191.75C34.99 192.37 35.25 193.94 35.5 195.25C35.75 196.56 36.08 198.75 36.23 200.12C36.39 201.5 36.62 203.24 36.76 204C37.06 205.76 37.54 210.22 37.62 212C37.81 216.28 38.28 223.11 38.49 224.62C38.63 225.59 38.77 231.32 38.81 237.38C38.88 249.21 38.89 249.14 37.52 252.12C37.27 252.68 36.78 253.76 36.43 254.53C36.04 255.38 35.59 255.98 35.3 256.06C34.35 256.31 34.29 256.2 33.48 252.25C33.32 251.49 32.93 249.73 32.6 248.34C32.27 246.94 31.93 245.25 31.84 244.59C31.75 243.92 31.58 243.18 31.46 242.94C31.34 242.71 30.91 240.85 30.51 238.82C30.11 236.79 29.68 234.84 29.55 234.5C29.42 234.16 29.23 233.26 29.14 232.5C28.98 231.24 28.61 229.49 27.63 225.38C27.43 224.55 27.21 223.48 27.13 223C27 222.24 26.38 219.55 25.46 215.75C25.31 215.13 25.04 213.95 24.86 213.12C24.69 212.3 24.37 210.89 24.16 210C23.96 209.11 23.5 207.04 23.14 205.41C22.79 203.79 22.26 201.54 21.97 200.41C21.68 199.29 21.23 197.47 20.98 196.38C20.73 195.28 20.08 192.69 19.54 190.62C16.54 179.12 15.73 175.97 15.37 174.5C15.16 173.61 14.77 172.03 14.5 171C13.48 166.99 12.07 159.34 11.86 156.62C11.77 155.53 11.6 154.23 11.47 153.75C11.34 153.27 11 150.4 10.72 147.38C10.14 141.25 10.2 136.89 10.89 133.83C11.45 131.34 13.03 128.84 14.5 128.1C17.61 126.53 21.53 126.65 28 128.49C30.43 129.19 32.67 129.7 34.6 130C35.55 130.15 36.52 130.38 36.76 130.5C37 130.63 38.02 130.86 39.03 131.01C40.05 131.16 41.4 131.44 42.04 131.62C42.96 131.89 43.3 131.9 43.62 131.66C44.13 131.29 45.58 125.32 46.14 121.25C46.36 119.67 46.59 118.3 46.66 118.2C46.75 118.04 47.24 114.3 48.01 107.75C48.15 106.58 48.32 105.47 48.39 105.27C48.51 104.95 48.9 101.05 49.5 94.25C50.4 84.05 50.86 79.99 51.38 77.5C51.57 76.61 51.79 75.37 51.88 74.75C52.21 72.47 53.57 67.39 54.42 65.29C55.69 62.13 56.71 60.33 58.1 58.82C59.96 56.78 61.08 56.12 63.53 55.61C65.55 55.19 65.76 55.19 67.17 55.58C67.99 55.81 68.92 56 69.25 56C70 56 72.96 57.52 74.75 58.83C77.68 60.98 80.89 64.33 82.68 67.13C88.21 75.75 89.58 77.44 92.55 79.32C95.4 81.12 99.05 77.34 102.07 69.48C103.72 65.17 104.23 63.77 104.6 62.5C104.82 61.74 105.39 59.83 105.86 58.25C106.34 56.67 107.01 54.28 107.36 52.94C107.7 51.59 108.2 49.74 108.47 48.81C108.74 47.88 109.26 46 109.63 44.62C110 43.25 110.98 40.1 111.81 37.62C113.37 32.98 114.34 30.69 116.89 25.75C117.43 24.69 119.29 21.67 119.51 21.5C119.59 21.43 120.15 20.64 120.74 19.75C121.33 18.86 122.91 17.05 124.25 15.74C130.09 10 135.07 8.86 141.62 11.77C142.93 12.35 145.8 14.63 147.79 16.67C150.08 19.01 150.52 19.56 152.09 22C156.1 28.28 156.11 28.31 157.73 32.5C159.84 37.98 160.55 43.16 160.59 53.25C160.64 65.19 160.28 82.55 159.88 87.12C159.41 92.58 159.41 94.93 159.89 97.92C160.72 103.06 162.19 105.47 165.38 106.88C167.03 107.62 168.77 107.93 172.24 108.11C178.41 108.44 181.84 110.46 183.45 114.71C184.6 117.76 184.85 119.4 184.66 122.7C184.34 128.41 182.76 133.84 179.36 140.88C178.05 143.6 174.8 149.69 173.62 151.62C173.04 152.59 172.08 154.16 171.5 155.12C170.05 157.51 165.11 164.89 164.14 166.12C163.71 166.68 163.02 167.6 162.61 168.19C161.47 169.84 160.01 171.83 158.48 173.81C155.93 177.12 151.13 183.66 150.72 184.4C150.49 184.8 149.81 185.91 149.21 186.88C147.18 190.1 146.26 192.86 146.97 193.57C147.12 193.72 148.46 193.92 149.94 194.02C151.42 194.11 152.91 194.25 153.25 194.33C153.59 194.42 155.39 194.84 157.25 195.27C161.77 196.32 163.41 197.12 164.99 199.01C167.37 201.87 167.02 204.47 163.48 210.12C162.18 212.21 161.42 213.35 158.54 217.47C156.29 220.71 152.29 225.05 148.25 228.63C146.1 230.54 139.04 236.25 135.79 238.72C131.71 241.81 131.1 242.24 125.33 246.1C123.29 247.46 121.03 248.98 120.31 249.48C119.58 249.97 118.68 250.55 118.31 250.76C117.93 250.97 116.84 251.6 115.88 252.16C112.1 254.37 106.81 257.08 103.5 258.48C102.47 258.92 101.4 259.38 101.12 259.5C100.45 259.8 96.77 261.08 93.17 262.26C89.14 263.58 85.41 264.38 78.75 265.35C72.43 266.27 71.48 266.36 70.81 266.08Z"/><path d="M63.13 238C62.94 237.7 63.04 237.52 64.38 235.75C64.96 234.99 65.52 234.1 65.62 233.77C65.83 233.09 66.54 231.99 69.19 228.21C74.15 221.15 82.6 207.33 87.14 198.88C88.9 195.6 93.9 185.48 94.13 184.75C94.23 184.41 94.68 183.39 95.12 182.5C95.99 180.76 100.21 170.29 101.66 166.3C102.14 164.97 103.32 161.46 104.28 158.5C105.25 155.54 106.19 152.73 106.37 152.25C106.84 151 108.7 145.02 108.88 144.12C108.97 143.71 109.42 142.14 109.88 140.62C111.79 134.39 114.13 125.63 114.89 121.92C115.09 120.99 115.41 119.64 115.62 118.92C115.82 118.21 116.28 116.11 116.63 114.25C117.65 108.92 117.94 108.04 118.85 107.57C119.97 106.99 125.66 107.01 127.44 107.6C129.36 108.24 130.56 109.68 131.39 112.35C132.01 114.35 132.05 114.73 131.94 117.81C131.87 119.63 131.64 121.86 131.43 122.75C131.21 123.64 130.93 124.88 130.8 125.5C130.41 127.34 128.47 133.77 127.95 134.99C127.68 135.62 127.08 137.14 126.63 138.38C126.18 139.61 125.64 141.02 125.43 141.5C123.83 145.18 123.27 146.44 122.21 148.7C121.54 150.12 121 151.33 121 151.41C121 151.9 112.82 167.78 109.63 173.5C108.98 174.67 107.99 176.46 107.44 177.48C106.88 178.51 106.05 179.97 105.59 180.73C105.13 181.5 104.75 182.21 104.75 182.32C104.75 182.42 104.26 183.32 103.66 184.32C103.07 185.31 102.09 187.03 101.5 188.12C100.9 189.22 100.11 190.57 99.73 191.12C99.35 191.68 97.95 194.04 96.62 196.38C95.28 198.71 94 200.91 93.77 201.25C93.53 201.59 92.49 203.39 91.45 205.25C90.41 207.11 89.15 209.36 88.65 210.25C86.54 213.98 81.05 221.07 75.56 227.12C72.84 230.13 68.98 233.94 67.97 234.63C67.37 235.03 66.26 235.91 65.5 236.58C63.84 238.04 63.34 238.34 63.13 238Z"/><path d="M89.89 158.06C89.29 157.15 88.86 156.18 87.24 152.12C86.03 149.1 85.24 146.96 85.02 146.12C84.92 145.7 84.7 145.12 84.54 144.83C84.38 144.53 83.31 141.5 82.15 138.08C80.99 134.67 79.6 130.58 79.05 129C77 123.12 76.88 122.59 76.88 119.62C76.88 117.05 76.92 116.79 77.61 115.55C78.5 113.95 79.79 112.75 80.63 112.75C81.39 112.75 83.57 115.3 84.64 117.44C85.03 118.23 85.67 119.38 86.06 120C86.45 120.62 86.93 121.63 87.12 122.25C87.32 122.87 87.64 123.83 87.85 124.4C88.05 124.96 88.56 127.15 88.99 129.27C90.42 136.47 90.9 139.35 91.25 142.75C91.4 144.19 91.64 146.44 91.78 147.75C92.14 150.99 91.88 157.63 91.37 158.41C90.85 159.21 90.61 159.16 89.89 158.06Z"/><path d="M134.85 149.89C134.6 149.24 134.16 149.58 143.79 143.11C144.85 142.41 147.19 140.66 148.99 139.23C152.81 136.19 153.54 135.75 154.79 135.75C155.8 135.75 156.6 136.49 157.51 138.27C158.39 139.99 158.21 140.61 156.31 142.43C154.32 144.34 152.68 145.59 150.62 146.78C149.33 147.54 148.2 147.99 144.38 149.28C143.58 149.54 137.54 150.24 135.93 150.24C135.33 150.25 134.93 150.12 134.85 149.89Z"/><path d="M62.57 208.62C62.05 208.11 61.38 207.53 61.07 207.32C60.77 207.12 60.2 206.38 59.8 205.67C59.14 204.49 58.62 203.37 56.11 197.75C55.65 196.72 54.3 193.34 53.12 190.25C51.94 187.16 50.55 183.78 50.03 182.75C48.28 179.29 47.93 178.17 48.04 176.38C48.13 175.1 48.27 174.63 48.76 174.11C49.7 173.1 50.95 172.58 52.88 172.4C54.51 172.24 54.68 172.27 55.16 172.8C55.79 173.51 57.86 177.15 58.12 178C58.23 178.34 58.41 178.74 58.52 178.89C58.87 179.33 60.5 183.7 61.12 185.86C62.02 189 62.72 192.75 63.27 197.38C63.55 199.71 63.88 202.41 64 203.38C64.36 206.19 64.31 208.89 63.89 209.24C63.59 209.49 63.35 209.37 62.57 208.62Z"/><path d="M95.88 227.75C95.65 227.38 95.89 227.1 97.46 225.93C99.78 224.21 103.38 221.75 103.59 221.75C103.66 221.75 104.59 221.2 105.67 220.54C106.74 219.87 109.26 218.51 111.25 217.51C113.24 216.52 115.07 215.6 115.32 215.47C116.76 214.72 118.64 214.2 119.52 214.32C120.56 214.46 121.69 215.21 122.18 216.08C122.67 216.96 122.58 219.5 122.02 220.41C119.89 223.91 114.84 226.02 104.75 227.62C102.06 228.05 96.11 228.13 95.88 227.75Z"/><path d="M49.71 357.44C48.97 356.58 48.08 355.43 47.73 354.88C46.77 353.36 44.85 349.29 44.43 347.88C43.16 343.61 43.17 343.66 41.87 331.62C41.67 329.84 41.4 327.36 41.26 326.12C41.12 324.89 41 322.81 41 321.5C40.99 320.19 40.83 317.32 40.63 315.12C40.13 309.65 40.13 293.99 40.63 289.88C40.83 288.23 41 286.03 41.02 285C41.03 283.97 41.14 282.51 41.25 281.75C41.55 279.8 42.19 276.22 42.34 275.62C42.42 275.35 42.66 274.17 42.87 273C43.82 267.96 46.81 261.54 49.22 259.38C50.45 258.28 50.72 258.17 51.17 258.54C51.53 258.84 51.55 259.91 51.35 269.5C51.23 275.34 51.14 285.75 51.14 292.62C51.16 303.35 51.22 305.46 51.59 307.5C52.65 313.31 54.67 319.02 57.2 323.38C59.74 327.73 61.05 329.49 63.75 332.19C66.41 334.83 69.09 336.8 76.5 341.52C79.35 343.34 81.74 345.75 82.31 347.38C83.51 350.79 82.22 353.19 78.75 354.02C76.97 354.45 71.49 354.46 68.68 354.03C67.48 353.85 66.24 353.76 65.92 353.84C65.61 353.92 64.77 354.69 64.06 355.55C63.35 356.42 62.38 357.55 61.9 358.06L61.03 359L56.04 359L51.06 359L49.71 357.44Z"/></g></svg>